<svg width="220" height="220" viewBox="0 0 220 220" fill="none" xmlns="http://www.w3.org/2000/svg">
<g clip-path="url(#clip0_169_26)">
<path d="M74.086 217.749C113.76 217.749 145.922 185.587 145.922 145.913C145.922 106.239 113.76 74.0774 74.086 74.0774C34.4121 74.0774 2.25 106.239 2.25 145.913C2.25 185.587 34.4121 217.749 74.086 217.749Z" stroke="#D7D7D7" stroke-width="3" stroke-miterlimit="10"/>
<path d="M145.914 217.749C185.588 217.749 217.75 185.587 217.75 145.913C217.75 106.239 185.588 74.0774 145.914 74.0774C106.24 74.0774 74.0781 106.239 74.0781 145.913C74.0781 185.587 106.24 217.749 145.914 217.749Z" stroke="#D7D7D7" stroke-width="3" stroke-miterlimit="10"/>
<path d="M145.914 145.922C185.588 145.922 217.75 113.76 217.75 74.0865C217.75 34.4126 185.588 2.25049 145.914 2.25049C106.24 2.25049 74.0781 34.4126 74.0781 74.0865C74.0781 113.76 106.24 145.922 145.914 145.922Z" stroke="#D7D7D7" stroke-width="3" stroke-miterlimit="10"/>
<path d="M74.086 145.922C113.76 145.922 145.922 113.76 145.922 74.0865C145.922 34.4126 113.76 2.25049 74.086 2.25049C34.4121 2.25049 2.25 34.4126 2.25 74.0865C2.25 113.76 34.4121 145.922 74.086 145.922Z" stroke="#F6A319" stroke-width="3" stroke-miterlimit="10"/>
</g>
<defs>
<clipPath id="clip0_169_26">
<rect width="220" height="220" fill="white"/>
</clipPath>
</defs>
</svg>
