<svg width="220" height="254" viewBox="0 0 220 254" fill="none" xmlns="http://www.w3.org/2000/svg">
<path d="M110 189.008L163.694 220.007L217.399 189.008V127L163.694 96.0012L110 127V189.008Z" stroke="#D7D7D7" stroke-width="3" stroke-miterlimit="10"/>
<path d="M56.2949 157.999V220.007L110 251.006L163.704 220.007V157.999L110 127L56.2949 157.999Z" stroke="#D7D7D7" stroke-width="3" stroke-miterlimit="10"/>
<path d="M163.704 96.0011V33.993L110 2.99414L56.2949 33.993V96.0011L110 127L163.704 96.0011Z" stroke="#D7D7D7" stroke-width="3" stroke-miterlimit="10"/>
<path d="M163.705 157.999L217.41 127V64.992L163.705 33.9932L110 64.992V127L163.705 157.999Z" stroke="#D7D7D7" stroke-width="3" stroke-miterlimit="10"/>
<path d="M56.2946 96.0012L2.58984 127V189.008L56.2946 220.007L109.999 189.008V127L56.2946 96.0012Z" stroke="#D7D7D7" stroke-width="3" stroke-miterlimit="10"/>
<path d="M110.41 64.9989L56.7048 34L3 64.9989V127.007L56.7048 158.006L110.41 127.007V64.9989Z" stroke="#F6A319" stroke-width="3" stroke-miterlimit="10"/>
</svg>
