<svg width="42" height="42" viewBox="0 0 42 42" fill="none" xmlns="http://www.w3.org/2000/svg">
<g clip-path="url(#clip0_302_7)">
<path d="M38.3455 18.0439C37.9172 16.9885 37.2836 16.0223 36.4662 15.193C35.1639 13.8717 33.5428 13.0563 31.8532 12.7548C31.3976 12.6714 30.94 12.6298 30.4785 12.6218C30.4296 12.6179 30.3827 12.6179 30.3338 12.6179C29.9134 12.6179 29.4968 12.6496 29.0784 12.7091C27.293 12.971 25.5682 13.8003 24.1955 15.193L22.4512 16.9667L24.8877 19.4386L26.632 17.665C27.4142 16.8714 28.3802 16.3854 29.3932 16.2028C29.7002 16.1433 30.017 16.1155 30.3318 16.1155C30.5352 16.1155 30.7425 16.1255 30.9459 16.1532C31.4074 16.2048 31.863 16.3239 32.301 16.5024C32.9287 16.7583 33.5213 17.1452 34.0277 17.663C36.0693 19.7303 36.0693 23.099 34.0277 25.1663C33.1908 26.0154 32.1152 26.5411 30.9459 26.678C31.4191 27.7474 31.7222 28.8921 31.8532 30.0745C33.5975 29.771 35.1971 28.9318 36.4662 27.6403C38.101 25.9817 39.0006 23.7716 39.0006 21.4186C39.0006 20.2402 38.7757 19.0994 38.3455 18.0439Z" fill="#F6A319"/>
<path d="M26.6334 25.1683L24.8891 23.3986V23.3946L23.9133 22.4086V22.4046L22.9375 21.4186L20.499 18.9466V18.9427L19.5232 17.9566L18.5474 16.9667L16.7992 15.193C15.4265 13.7983 13.7037 12.971 11.9144 12.7091C11.4998 12.6496 11.0833 12.6179 10.6668 12.6179C10.6159 12.6179 10.567 12.6179 10.5142 12.6218C10.0527 12.6298 9.5932 12.6714 9.13953 12.7587C7.44998 13.0603 5.83278 13.8717 4.53042 15.193C2.89953 16.8496 2 19.0617 2 21.4186C2 22.5971 2.22488 23.7378 2.65509 24.7913C3.08335 25.8448 3.71302 26.8129 4.53042 27.6422C5.80345 28.9338 7.40304 29.773 9.14735 30.0765C9.27446 28.912 9.57756 27.7672 10.0547 26.68C8.88531 26.5431 7.80783 26.0194 6.96892 25.1683C4.93129 23.101 4.93129 19.7323 6.96892 17.665C7.83325 16.7861 8.92442 16.2862 10.0508 16.1532C10.2542 16.1255 10.4614 16.1155 10.6687 16.1155C10.9816 16.1155 11.2964 16.1433 11.6074 16.2028C12.6184 16.3854 13.5863 16.8714 14.3646 17.665L16.1128 19.4386L17.0886 20.4286L18.0644 21.4186L24.1969 27.6403C24.9556 28.41 25.4523 29.3782 25.6381 30.4376C25.6928 30.7491 25.7202 31.0705 25.7202 31.3919C25.7202 31.6022 25.7104 31.8085 25.685 32.0148C25.6303 32.5049 25.509 32.981 25.3271 33.4234C25.069 34.0603 24.6897 34.6416 24.1969 35.1415C24.0248 35.3161 23.841 35.4768 23.6513 35.6236C22.7244 36.3378 21.6097 36.691 20.501 36.691C19.3922 36.691 18.2776 36.3378 17.3507 35.6236C17.1571 35.4768 16.9752 35.3161 16.8031 35.1415C15.9368 34.2666 15.4441 33.1576 15.313 32.0148C15.2505 31.4911 15.2642 30.9594 15.3619 30.4376C15.5418 29.4119 16.0209 28.4338 16.8031 27.6403L18.5513 25.8666L16.1148 23.3926L14.3666 25.1663C12.9938 26.559 12.1764 28.3069 11.9183 30.1182C11.8538 30.5904 11.8225 31.0665 11.8322 31.5387C11.8401 32.0069 11.8811 32.4731 11.9633 32.9334C12.2605 34.6515 13.0623 36.2922 14.3666 37.6135C14.8691 38.1234 15.4225 38.5658 16.019 38.9289C16.457 39.1987 16.9185 39.4249 17.3976 39.6074C17.8454 39.782 18.305 39.9189 18.7762 40.0141L20.5029 41.998L22.2238 40.0141C22.697 39.9189 23.1546 39.7859 23.6024 39.6074C23.6787 39.5836 23.7549 39.5518 23.8292 39.5201C24.2262 39.3554 24.6114 39.157 24.981 38.9328C25.5775 38.5698 26.1328 38.1254 26.6354 37.6135C27.9084 36.322 28.7356 34.6991 29.0348 32.9334C29.1169 32.4791 29.1599 32.0109 29.1658 31.5387C29.1697 31.4891 29.1697 31.4415 29.1697 31.3919C29.1697 30.9614 29.1384 30.5388 29.0798 30.1182C28.8177 28.2473 27.9729 26.5233 26.6354 25.1663L26.6334 25.1683Z" fill="#F6A319"/>
<path d="M14.4245 5.15626C14.403 5.1761 14.3835 5.19594 14.3619 5.21578C13.8731 5.71176 13.4526 6.25735 13.1065 6.83269C12.5277 7.78498 12.1444 8.82655 11.9586 9.89391C13.128 10.0268 14.2544 10.3383 15.3104 10.8164C15.4336 9.73916 15.8833 8.69759 16.6557 7.84648C16.7046 7.7949 16.7516 7.74133 16.8044 7.68975C17.3695 7.11242 18.0344 6.69976 18.7423 6.4478L18.928 6.38432C19.3758 6.24147 19.8413 6.16013 20.3067 6.14624C20.3712 6.13831 20.4338 6.13831 20.5003 6.13831C20.5667 6.13831 20.6274 6.13831 20.6939 6.14624C21.1593 6.16013 21.6247 6.24147 22.0725 6.38432L22.2583 6.4478C22.9642 6.69976 23.631 7.11639 24.1962 7.68975C24.247 7.74133 24.2959 7.7949 24.3448 7.84648C25.0957 8.6718 25.5591 9.70345 25.6862 10.8164C26.7403 10.3363 27.8686 10.0268 29.0341 9.89391C28.8483 8.80274 28.4611 7.76712 27.892 6.83269C27.5401 6.25139 27.1196 5.70978 26.6327 5.21578C26.6131 5.19395 26.5916 5.1761 26.5721 5.15824C27.5225 4.13453 28.8698 3.49769 30.3599 3.49769V0C27.6574 0 25.2423 1.26377 23.6486 3.23779C23.1128 3.02749 22.5535 2.87076 21.9786 2.77553C21.9336 2.76561 21.8887 2.75768 21.8437 2.75172C21.433 2.68625 21.0126 2.65054 20.5883 2.65054C20.557 2.64658 20.5296 2.64658 20.4983 2.64658C20.467 2.64658 20.4396 2.64658 20.4083 2.65054C19.984 2.65054 19.5636 2.68625 19.1529 2.75172C19.1079 2.75966 19.063 2.76561 19.018 2.77553C18.4431 2.87076 17.8877 3.02948 17.3499 3.24176C15.7601 1.26377 13.3412 0 10.6348 0V3.49769C12.1288 3.49769 13.4742 4.13453 14.4245 5.15626Z" fill="#F6A319"/>
</g>
<defs>
<clipPath id="clip0_302_7">
<rect width="37" height="42" fill="white" transform="translate(2)"/>
</clipPath>
</defs>
</svg>
