<svg width="1824" height="496" viewBox="0 0 1824 496" fill="none" xmlns="http://www.w3.org/2000/svg">
<path opacity="0.1" d="M1094.8 72.2479V212.752L973.43 283L852.063 212.752V72.2479L973.43 2L1094.8 72.2479Z" stroke="black" stroke-width="2" stroke-miterlimit="10"/>
<path opacity="0.1" d="M1215.67 423.752V283.248L1337.53 213L1459.4 283.248V423.752L1337.53 494L1215.67 423.752Z" stroke="black" stroke-width="2" stroke-miterlimit="10"/>
<path opacity="0.1" d="M608.335 72.2479L608.335 212.752L486.968 283L365.602 212.752L365.602 72.2479L486.968 2.00001L608.335 72.2479Z" stroke="black" stroke-width="2" stroke-miterlimit="10"/>
<path d="M1580.27 212.752V72.2479L1701.63 2L1823 72.2479V212.752L1701.63 283L1580.27 212.752Z" stroke="#F6A319" stroke-width="2" stroke-miterlimit="10"/>
<path d="M243.734 283.248L243.734 423.752L122.367 494L1.00001 423.752L1.00002 283.248L122.367 213L243.734 283.248Z" stroke="#F6A319" stroke-width="2" stroke-miterlimit="10"/>
<path d="M1215.66 283.248V423.752L1094.3 494L972.931 423.752V283.248L1094.3 213L1215.66 283.248Z" stroke="#F6A319" stroke-width="2" stroke-miterlimit="10"/>
<path d="M608.336 212.752L608.336 72.2479L729.703 2.00001L851.069 72.2479L851.069 212.752L729.703 283L608.336 212.752Z" stroke="#F6A319" stroke-width="2" stroke-miterlimit="10"/>
</svg>
